<?xml version="1.0" encoding="UTF-8"?>
<svg width="1003px" height="270px" viewBox="0 0 1003 270" version="1.1" xmlns="http://www.w3.org/2000/svg" xmlns:xlink="http://www.w3.org/1999/xlink">
    <title>artboard</title>
    <g id="artboard" stroke="none" stroke-width="1" fill="none" fill-rule="evenodd">
        <g id="Group-4" transform="translate(106.000000, 88.000000)">
            <g id="Group" transform="translate(642.000000, 1.000000)">
                <rect id="Rectangle" stroke="#979797" fill-opacity="0.3" fill="#4AC4F7" x="0.5" y="0.5" width="148" height="92" rx="8"></rect>
                <path d="M49.8510742,45 C53.6303711,45 55.8188477,42.6621094 55.8188477,38.6367188 L55.8188477,38.6191406 C55.8188477,34.6376953 53.612793,32.3173828 49.8510742,32.3173828 L45.2719727,32.3173828 L45.2719727,45 L49.8510742,45 Z M49.6313477,43.3037109 L47.2407227,43.3037109 L47.2407227,34.0136719 L49.6313477,34.0136719 C52.2592773,34.0136719 53.8149414,35.7275391 53.8149414,38.6455078 L53.8149414,38.6630859 C53.8149414,41.6074219 52.2856445,43.3037109 49.6313477,43.3037109 Z M62.3051758,45.1845703 C65.1000977,45.1845703 66.8139648,43.3125 66.8139648,40.2363281 L66.8139648,40.21875 C66.8139648,37.1425781 65.0913086,35.2705078 62.3051758,35.2705078 C59.5102539,35.2705078 57.7875977,37.1513672 57.7875977,40.21875 L57.7875977,40.2363281 C57.7875977,43.3125 59.5014648,45.1845703 62.3051758,45.1845703 Z M62.3051758,43.59375 C60.6616211,43.59375 59.7387695,42.3544922 59.7387695,40.2363281 L59.7387695,40.21875 C59.7387695,38.1005859 60.6616211,36.8613281 62.3051758,36.8613281 C63.9399414,36.8613281 64.871582,38.1005859 64.871582,40.21875 L64.871582,40.2363281 C64.871582,42.3457031 63.9399414,43.59375 62.3051758,43.59375 Z M73.0981445,45.1845703 C75.4624023,45.1845703 76.824707,43.9101562 77.1674805,42.0556641 L77.1850586,41.9765625 L75.3569336,41.9765625 L75.3393555,42.0205078 C75.0317383,43.0488281 74.293457,43.59375 73.0981445,43.59375 C71.5249023,43.59375 70.5493164,42.3105469 70.5493164,40.2011719 L70.5493164,40.1835938 C70.5493164,38.1269531 71.5073242,36.8613281 73.0981445,36.8613281 C74.3637695,36.8613281 75.137207,37.5644531 75.3481445,38.5048828 L75.3569336,38.53125 L77.1850586,38.5224609 L77.1850586,38.4785156 C76.9213867,36.6240234 75.4887695,35.2705078 73.0893555,35.2705078 C70.3032227,35.2705078 68.6069336,37.1601562 68.6069336,40.1835938 L68.6069336,40.2011719 C68.6069336,43.2861328 70.3120117,45.1845703 73.0981445,45.1845703 Z M81.3334961,45 L81.3334961,41.5283203 L82.1508789,40.7109375 L85.4379883,45 L87.7583008,45 L83.5131836,39.4804688 L87.4946289,35.4550781 L85.262207,35.4550781 L81.4741211,39.4804688 L81.3334961,39.4804688 L81.3334961,31.7109375 L79.4262695,31.7109375 L79.4262695,45 L81.3334961,45 Z M93.0141602,45.1845703 C95.4575195,45.1845703 96.7758789,43.7783203 97.0922852,42.5214844 L97.1098633,42.4423828 L95.2729492,42.4511719 L95.237793,42.5214844 C95.0092773,43.0136719 94.2797852,43.6201172 93.0581055,43.6201172 C91.4848633,43.6201172 90.4829102,42.5566406 90.4477539,40.7285156 L97.215332,40.7285156 L97.215332,40.0605469 C97.215332,37.1953125 95.5805664,35.2705078 92.9174805,35.2705078 C90.2543945,35.2705078 88.5317383,37.265625 88.5317383,40.2451172 L88.5317383,40.2539062 C88.5317383,43.2773438 90.2192383,45.1845703 93.0141602,45.1845703 Z M95.3256836,39.3662109 L90.4741211,39.3662109 C90.6411133,37.7226562 91.6254883,36.8349609 92.9262695,36.8349609 C94.2182617,36.8349609 95.1762695,37.6611328 95.3256836,39.3662109 Z M101.390137,45 L101.390137,39.2958984 C101.390137,37.9160156 102.383301,37.0195312 103.842285,37.0195312 C104.202637,37.0195312 104.527832,37.0634766 104.870605,37.1337891 L104.870605,35.3759766 C104.677246,35.3320312 104.343262,35.2880859 104.035645,35.2880859 C102.76123,35.2880859 101.873535,35.8857422 101.530762,36.8964844 L101.390137,36.8964844 L101.390137,35.4550781 L99.4829102,35.4550781 L99.4829102,45 L101.390137,45 Z M38.8603516,66.3076172 C41.6904297,66.3076172 43.7558594,64.6904297 44.125,62.2558594 L44.125,62.203125 L42.1738281,62.203125 L42.15625,62.2382812 C41.7958984,63.6708984 40.5390625,64.5673828 38.8603516,64.5673828 C36.5751953,64.5673828 35.1513672,62.6777344 35.1513672,59.671875 L35.1513672,59.6542969 C35.1513672,56.6396484 36.5751953,54.75 38.8515625,54.75 C40.5214844,54.75 41.7958984,55.7607422 42.1650391,57.3164062 L42.1650391,57.3427734 L44.1162109,57.3427734 L44.125,57.2988281 C43.7910156,54.7763672 41.6464844,53.0097656 38.8515625,53.0097656 C35.3271484,53.0097656 33.1386719,55.5585938 33.1386719,59.6542969 L33.1386719,59.671875 C33.1386719,63.7587891 35.3359375,66.3076172 38.8603516,66.3076172 Z M50.5322266,66.1845703 C53.3271484,66.1845703 55.0410156,64.3125 55.0410156,61.2363281 L55.0410156,61.21875 C55.0410156,58.1425781 53.3183594,56.2705078 50.5322266,56.2705078 C47.7373047,56.2705078 46.0146484,58.1513672 46.0146484,61.21875 L46.0146484,61.2363281 C46.0146484,64.3125 47.7285156,66.1845703 50.5322266,66.1845703 Z M50.5322266,64.59375 C48.8886719,64.59375 47.9658203,63.3544922 47.9658203,61.2363281 L47.9658203,61.21875 C47.9658203,59.1005859 48.8886719,57.8613281 50.5322266,57.8613281 C52.1669922,57.8613281 53.0986328,59.1005859 53.0986328,61.21875 L53.0986328,61.2363281 C53.0986328,63.3457031 52.1669922,64.59375 50.5322266,64.59375 Z M59.2158203,66 L59.2158203,60.4013672 C59.2158203,58.8632812 60.0859375,57.9052734 61.4833984,57.9052734 C62.8808594,57.9052734 63.5400391,58.6875 63.5400391,60.2695312 L63.5400391,66 L65.4384766,66 L65.4384766,59.8212891 C65.4384766,57.5449219 64.2607422,56.2705078 62.125,56.2705078 C60.7363281,56.2705078 59.8222656,56.8857422 59.3564453,57.9052734 L59.2158203,57.9052734 L59.2158203,56.4550781 L57.3085938,56.4550781 L57.3085938,66 L59.2158203,66 Z M71.6962891,66.0615234 C72.0654297,66.0615234 72.4169922,66.0175781 72.7246094,65.9648438 L72.7246094,64.4443359 C72.4609375,64.4707031 72.2939453,64.4794922 72.0039062,64.4794922 C71.0634766,64.4794922 70.6767578,64.0576172 70.6767578,63.0292969 L70.6767578,57.9580078 L72.7246094,57.9580078 L72.7246094,56.4550781 L70.6767578,56.4550781 L70.6767578,54.046875 L68.734375,54.046875 L68.734375,56.4550781 L67.2402344,56.4550781 L67.2402344,57.9580078 L68.734375,57.9580078 L68.734375,63.4863281 C68.734375,65.3232422 69.5957031,66.0615234 71.6962891,66.0615234 Z M77.5673828,66.1582031 C78.8330078,66.1582031 79.8349609,65.6132812 80.3974609,64.6464844 L80.546875,64.6464844 L80.546875,66 L82.4365234,66 L82.4365234,59.4697266 C82.4365234,57.4658203 81.0830078,56.2705078 78.6835938,56.2705078 C76.5126953,56.2705078 75.0097656,57.3164062 74.78125,58.8808594 L74.7724609,58.9423828 L76.609375,58.9423828 L76.6181641,58.9072266 C76.8466797,58.2304688 77.5410156,57.84375 78.5957031,57.84375 C79.8876953,57.84375 80.546875,58.4238281 80.546875,59.4697266 L80.546875,60.3134766 L77.9628906,60.4628906 C75.6865234,60.6035156 74.4033203,61.5966797 74.4033203,63.3017578 L74.4033203,63.3193359 C74.4033203,65.0507812 75.7480469,66.1582031 77.5673828,66.1582031 Z M78.0771484,64.6376953 C77.0488281,64.6376953 76.3017578,64.1191406 76.3017578,63.2402344 L76.3017578,63.2226562 C76.3017578,62.3613281 76.8994141,61.8867188 78.2177734,61.8076172 L80.546875,61.6582031 L80.546875,62.4755859 C80.546875,63.7060547 79.5009766,64.6376953 78.0771484,64.6376953 Z M86.1191406,54.75 C86.7695312,54.75 87.3144531,54.2138672 87.3144531,53.5634766 C87.3144531,52.9042969 86.7695312,52.3681641 86.1191406,52.3681641 C85.4599609,52.3681641 84.9238281,52.9042969 84.9238281,53.5634766 C84.9238281,54.2138672 85.4599609,54.75 86.1191406,54.75 Z M87.0595703,66 L87.0595703,56.4550781 L85.1611328,56.4550781 L85.1611328,66 L87.0595703,66 Z M91.7441406,66 L91.7441406,60.4013672 C91.7441406,58.8632812 92.6142578,57.9052734 94.0117188,57.9052734 C95.4091797,57.9052734 96.0683594,58.6875 96.0683594,60.2695312 L96.0683594,66 L97.9667969,66 L97.9667969,59.8212891 C97.9667969,57.5449219 96.7890625,56.2705078 94.6533203,56.2705078 C93.2646484,56.2705078 92.3505859,56.8857422 91.8847656,57.9052734 L91.7441406,57.9052734 L91.7441406,56.4550781 L89.8369141,56.4550781 L89.8369141,66 L91.7441406,66 Z M104.628906,66.1845703 C107.072266,66.1845703 108.390625,64.7783203 108.707031,63.5214844 L108.724609,63.4423828 L106.887695,63.4511719 L106.852539,63.5214844 C106.624023,64.0136719 105.894531,64.6201172 104.672852,64.6201172 C103.099609,64.6201172 102.097656,63.5566406 102.0625,61.7285156 L108.830078,61.7285156 L108.830078,61.0605469 C108.830078,58.1953125 107.195312,56.2705078 104.532227,56.2705078 C101.869141,56.2705078 100.146484,58.265625 100.146484,61.2451172 L100.146484,61.2539062 C100.146484,64.2773438 101.833984,66.1845703 104.628906,66.1845703 Z M106.94043,60.3662109 L102.088867,60.3662109 C102.255859,58.7226562 103.240234,57.8349609 104.541016,57.8349609 C105.833008,57.8349609 106.791016,58.6611328 106.94043,60.3662109 Z M113.004883,66 L113.004883,60.2958984 C113.004883,58.9160156 113.998047,58.0195312 115.457031,58.0195312 C115.817383,58.0195312 116.142578,58.0634766 116.485352,58.1337891 L116.485352,56.3759766 C116.291992,56.3320312 115.958008,56.2880859 115.650391,56.2880859 C114.375977,56.2880859 113.488281,56.8857422 113.145508,57.8964844 L113.004883,57.8964844 L113.004883,56.4550781 L111.097656,56.4550781 L111.097656,66 L113.004883,66 Z" id="DockerContainer" fill="#000000" fill-rule="nonzero"></path>
            </g>
            <g id="Group" transform="translate(428.000000, 0.000000)">
                <rect id="Rectangle" stroke="#979797" fill-opacity="0.3" fill="#718993" x="0.5" y="0.5" width="148" height="92" rx="8"></rect>
                <path d="M46.3125,32 L46.3125,27.6669922 L49.2832031,27.6669922 C51.7705078,27.6669922 53.4931641,25.9707031 53.4931641,23.4921875 L53.4931641,23.4746094 C53.4931641,20.9873047 51.7705078,19.3173828 49.2832031,19.3173828 L44.34375,19.3173828 L44.34375,32 L46.3125,32 Z M48.7910156,26.0146484 L46.3125,26.0146484 L46.3125,20.9785156 L48.7910156,20.9785156 C50.4960938,20.9785156 51.4892578,21.9013672 51.4892578,23.4833984 L51.4892578,23.5009766 C51.4892578,25.0917969 50.4960938,26.0146484 48.7910156,26.0146484 Z M59.0126953,32.1845703 C61.2802734,32.1845703 62.9677734,30.9804688 62.9677734,29.2138672 L62.9677734,29.1962891 C62.9677734,27.8164062 62.0888672,27.0341797 60.2519531,26.6035156 L58.7402344,26.2607422 C57.6679688,26.0058594 57.2285156,25.6367188 57.2285156,25.0390625 L57.2285156,25.0214844 C57.2285156,24.2568359 57.984375,23.7382812 59.0302734,23.7382812 C60.1025391,23.7382812 60.7792969,24.2392578 60.9638672,24.9072266 L60.9638672,24.9248047 L62.7832031,24.9248047 L62.7832031,24.9160156 C62.6162109,23.3603516 61.21875,22.2705078 59.0390625,22.2705078 C56.8769531,22.2705078 55.3300781,23.4658203 55.3300781,25.1269531 L55.3300781,25.1357422 C55.3300781,26.5332031 56.1650391,27.3505859 57.9667969,27.7636719 L59.4873047,28.1152344 C60.5947266,28.3701172 61.0429688,28.7744141 61.0429688,29.3720703 L61.0429688,29.3896484 C61.0429688,30.171875 60.2255859,30.7080078 59.0478516,30.7080078 C57.9140625,30.7080078 57.2197266,30.2246094 56.9824219,29.5039062 L56.9736328,29.4951172 L55.0664062,29.4951172 L55.0664062,29.5039062 C55.2509766,31.1035156 56.7099609,32.1845703 59.0126953,32.1845703 Z M69.2519531,32.1845703 C71.6953125,32.1845703 73.0136719,30.7783203 73.3300781,29.5214844 L73.3476562,29.4423828 L71.5107422,29.4511719 L71.4755859,29.5214844 C71.2470703,30.0136719 70.5175781,30.6201172 69.2958984,30.6201172 C67.7226562,30.6201172 66.7207031,29.5566406 66.6855469,27.7285156 L73.453125,27.7285156 L73.453125,27.0605469 C73.453125,24.1953125 71.8183594,22.2705078 69.1552734,22.2705078 C66.4921875,22.2705078 64.7695312,24.265625 64.7695312,27.2451172 L64.7695312,27.2539062 C64.7695312,30.2773438 66.4570312,32.1845703 69.2519531,32.1845703 Z M71.5634766,26.3662109 L66.7119141,26.3662109 C66.8789062,24.7226562 67.8632812,23.8349609 69.1640625,23.8349609 C70.4560547,23.8349609 71.4140625,24.6611328 71.5634766,26.3662109 Z M78.9023438,32.1845703 C80.2910156,32.1845703 81.2578125,31.5869141 81.7148438,30.5585938 L81.8642578,30.5585938 L81.8642578,32 L83.7626953,32 L83.7626953,22.4550781 L81.8642578,22.4550781 L81.8642578,28.0537109 C81.8642578,29.5917969 81.046875,30.5498047 79.5175781,30.5498047 C78.1201172,30.5498047 77.5400391,29.7675781 77.5400391,28.1855469 L77.5400391,22.4550781 L75.6328125,22.4550781 L75.6328125,28.6337891 C75.6328125,30.8925781 76.7490234,32.1845703 78.9023438,32.1845703 Z M89.9853516,32.1582031 C91.3212891,32.1582031 92.3671875,31.5429688 92.9208984,30.4970703 L93.0703125,30.4970703 L93.0703125,32 L94.96875,32 L94.96875,18.7109375 L93.0703125,18.7109375 L93.0703125,23.9667969 L92.9208984,23.9667969 C92.4111328,22.9384766 91.2949219,22.2880859 89.9853516,22.2880859 C87.5595703,22.2880859 86.0302734,24.1953125 86.0302734,27.21875 L86.0302734,27.2363281 C86.0302734,30.2333984 87.5859375,32.1582031 89.9853516,32.1582031 Z M90.5302734,30.5322266 C88.9306641,30.5322266 87.9726562,29.2841797 87.9726562,27.2363281 L87.9726562,27.21875 C87.9726562,25.1708984 88.9306641,23.9228516 90.5302734,23.9228516 C92.1123047,23.9228516 93.0966797,25.1796875 93.0966797,27.21875 L93.0966797,27.2363281 C93.0966797,29.2753906 92.1210938,30.5322266 90.5302734,30.5322266 Z M101.841797,32.1845703 C104.636719,32.1845703 106.350586,30.3125 106.350586,27.2363281 L106.350586,27.21875 C106.350586,24.1425781 104.62793,22.2705078 101.841797,22.2705078 C99.046875,22.2705078 97.3242188,24.1513672 97.3242188,27.21875 L97.3242188,27.2363281 C97.3242188,30.3125 99.0380859,32.1845703 101.841797,32.1845703 Z M101.841797,30.59375 C100.198242,30.59375 99.2753906,29.3544922 99.2753906,27.2363281 L99.2753906,27.21875 C99.2753906,25.1005859 100.198242,23.8613281 101.841797,23.8613281 C103.476562,23.8613281 104.408203,25.1005859 104.408203,27.21875 L104.408203,27.2363281 C104.408203,29.3457031 103.476562,30.59375 101.841797,30.59375 Z M44.6557617,53 L44.6557617,42.0136719 L48.637207,42.0136719 L48.637207,40.3173828 L38.6967773,40.3173828 L38.6967773,42.0136719 L42.6870117,42.0136719 L42.6870117,53 L44.6557617,53 Z M53.1108398,53.1845703 C55.5541992,53.1845703 56.8725586,51.7783203 57.1889648,50.5214844 L57.206543,50.4423828 L55.3696289,50.4511719 L55.3344727,50.5214844 C55.105957,51.0136719 54.3764648,51.6201172 53.1547852,51.6201172 C51.581543,51.6201172 50.5795898,50.5566406 50.5444336,48.7285156 L57.3120117,48.7285156 L57.3120117,48.0605469 C57.3120117,45.1953125 55.6772461,43.2705078 53.0141602,43.2705078 C50.3510742,43.2705078 48.628418,45.265625 48.628418,48.2451172 L48.628418,48.2539062 C48.628418,51.2773438 50.315918,53.1845703 53.1108398,53.1845703 Z M55.4223633,47.3662109 L50.5708008,47.3662109 C50.737793,45.7226562 51.722168,44.8349609 53.0229492,44.8349609 C54.3149414,44.8349609 55.2729492,45.6611328 55.4223633,47.3662109 Z M61.4868164,53 L61.4868164,47.2958984 C61.4868164,45.9160156 62.4799805,45.0195312 63.9389648,45.0195312 C64.2993164,45.0195312 64.6245117,45.0634766 64.9672852,45.1337891 L64.9672852,43.3759766 C64.7739258,43.3320312 64.4399414,43.2880859 64.1323242,43.2880859 C62.8579102,43.2880859 61.9702148,43.8857422 61.6274414,44.8964844 L61.4868164,44.8964844 L61.4868164,43.4550781 L59.5795898,43.4550781 L59.5795898,53 L61.4868164,53 Z M68.8344727,53 L68.8344727,47.1376953 C68.8344727,45.8896484 69.6870117,44.9052734 70.8383789,44.9052734 C71.9633789,44.9052734 72.675293,45.5908203 72.675293,46.6806641 L72.675293,53 L74.5737305,53 L74.5737305,46.9619141 C74.5737305,45.8105469 75.3735352,44.9052734 76.5864258,44.9052734 C77.8344727,44.9052734 78.4321289,45.5556641 78.4321289,46.8740234 L78.4321289,53 L80.3305664,53 L80.3305664,46.4169922 C80.3305664,44.4306641 79.2055664,43.2705078 77.2807617,43.2705078 C75.9536133,43.2705078 74.8549805,43.9472656 74.371582,44.9755859 L74.222168,44.9755859 C73.800293,43.9472656 72.8774414,43.2705078 71.5766602,43.2705078 C70.3286133,43.2705078 69.3969727,43.8769531 68.9750977,44.9228516 L68.8344727,44.9228516 L68.8344727,43.4550781 L66.9272461,43.4550781 L66.9272461,53 L68.8344727,53 Z M83.9868164,41.75 C84.637207,41.75 85.1821289,41.2138672 85.1821289,40.5634766 C85.1821289,39.9042969 84.637207,39.3681641 83.9868164,39.3681641 C83.3276367,39.3681641 82.7915039,39.9042969 82.7915039,40.5634766 C82.7915039,41.2138672 83.3276367,41.75 83.9868164,41.75 Z M84.9272461,53 L84.9272461,43.4550781 L83.0288086,43.4550781 L83.0288086,53 L84.9272461,53 Z M89.6118164,53 L89.6118164,47.4013672 C89.6118164,45.8632812 90.4819336,44.9052734 91.8793945,44.9052734 C93.2768555,44.9052734 93.9360352,45.6875 93.9360352,47.2695312 L93.9360352,53 L95.8344727,53 L95.8344727,46.8212891 C95.8344727,44.5449219 94.6567383,43.2705078 92.5209961,43.2705078 C91.1323242,43.2705078 90.2182617,43.8857422 89.7524414,44.9052734 L89.6118164,44.9052734 L89.6118164,43.4550781 L87.7045898,43.4550781 L87.7045898,53 L89.6118164,53 Z M101.10791,53.1582031 C102.373535,53.1582031 103.375488,52.6132812 103.937988,51.6464844 L104.087402,51.6464844 L104.087402,53 L105.977051,53 L105.977051,46.4697266 C105.977051,44.4658203 104.623535,43.2705078 102.224121,43.2705078 C100.053223,43.2705078 98.550293,44.3164062 98.3217773,45.8808594 L98.3129883,45.9423828 L100.149902,45.9423828 L100.158691,45.9072266 C100.387207,45.2304688 101.081543,44.84375 102.13623,44.84375 C103.428223,44.84375 104.087402,45.4238281 104.087402,46.4697266 L104.087402,47.3134766 L101.503418,47.4628906 C99.2270508,47.6035156 97.9438477,48.5966797 97.9438477,50.3017578 L97.9438477,50.3193359 C97.9438477,52.0507812 99.2885742,53.1582031 101.10791,53.1582031 Z M101.617676,51.6376953 C100.589355,51.6376953 99.8422852,51.1191406 99.8422852,50.2402344 L99.8422852,50.2226562 C99.8422852,49.3613281 100.439941,48.8867188 101.758301,48.8076172 L104.087402,48.6582031 L104.087402,49.4755859 C104.087402,50.7060547 103.041504,51.6376953 101.617676,51.6376953 Z M110.661621,53 L110.661621,39.7109375 L108.754395,39.7109375 L108.754395,53 L110.661621,53 Z M59.9926758,77.1816406 C58.7006836,75.5380859 57.7338867,72.0488281 57.7338867,68.9462891 C57.7338867,65.8613281 58.7006836,62.3544922 59.9926758,60.7109375 L58.3227539,60.7109375 C56.5825195,62.9433594 55.7827148,65.6591797 55.7827148,68.9462891 C55.7827148,72.2333984 56.5825195,74.9404297 58.3227539,77.1816406 L59.9926758,77.1816406 Z M64.1762695,77.1816406 L64.1762695,72.4882812 L64.3168945,72.4882812 C64.8266602,73.5166016 65.9428711,74.1582031 67.2524414,74.1582031 C69.6782227,74.1582031 71.2075195,72.2597656 71.2075195,69.2363281 L71.2075195,69.21875 C71.2075195,66.2128906 69.6606445,64.2880859 67.2524414,64.2880859 C65.9165039,64.2880859 64.8706055,64.9121094 64.3168945,65.9580078 L64.1762695,65.9580078 L64.1762695,64.4550781 L62.269043,64.4550781 L62.269043,77.1816406 L64.1762695,77.1816406 Z M66.7163086,72.5322266 C65.1254883,72.5322266 64.1411133,71.2753906 64.1411133,69.2363281 L64.1411133,69.21875 C64.1411133,67.1796875 65.1254883,65.9228516 66.7163086,65.9228516 C68.3071289,65.9228516 69.2651367,67.1621094 69.2651367,69.21875 L69.2651367,69.2363281 C69.2651367,71.2841797 68.3071289,72.5322266 66.7163086,72.5322266 Z M77.0961914,74.0615234 C77.465332,74.0615234 77.8168945,74.0175781 78.1245117,73.9648438 L78.1245117,72.4443359 C77.8608398,72.4707031 77.6938477,72.4794922 77.4038086,72.4794922 C76.4633789,72.4794922 76.0766602,72.0576172 76.0766602,71.0292969 L76.0766602,65.9580078 L78.1245117,65.9580078 L78.1245117,64.4550781 L76.0766602,64.4550781 L76.0766602,62.046875 L74.1342773,62.046875 L74.1342773,64.4550781 L72.6401367,64.4550781 L72.6401367,65.9580078 L74.1342773,65.9580078 L74.1342773,71.4863281 C74.1342773,73.3232422 74.9956055,74.0615234 77.0961914,74.0615234 Z M81.2797852,77.3574219 C83.2133789,77.3574219 84.1801758,76.6455078 84.9887695,74.3691406 L88.5395508,64.4550781 L86.5356445,64.4550781 L84.1538086,72.0839844 L83.9868164,72.0839844 L81.5961914,64.4550781 L79.5395508,64.4550781 L83.0024414,74.0087891 L82.8618164,74.5009766 C82.5805664,75.4677734 82.0444336,75.8457031 81.1567383,75.8457031 C80.9370117,75.8457031 80.699707,75.8369141 80.5151367,75.8105469 L80.5151367,77.3134766 C80.7612305,77.3398438 81.0424805,77.3574219 81.2797852,77.3574219 Z M91.6772461,77.1816406 C93.4086914,74.9404297 94.2084961,72.2333984 94.2084961,68.9462891 C94.2084961,65.6591797 93.4174805,62.9433594 91.6772461,60.7109375 L90.0073242,60.7109375 C91.2993164,62.3544922 92.2661133,65.8613281 92.2661133,68.9462891 C92.2661133,72.0488281 91.2993164,75.5380859 90.0073242,77.1816406 L91.6772461,77.1816406 Z" id="PseudoTerminal(pty)" fill="#000000" fill-rule="nonzero"></path>
            </g>
            <g id="Group" transform="translate(214.000000, 1.000000)">
                <rect id="Rectangle" stroke="#979797" fill-opacity="0.3" fill="#351451" x="0.5" y="0.5" width="148" height="92" rx="8"></rect>
                <path d="M32.449707,43 L32.449707,41.3037109 L26.3676758,41.3037109 L26.3676758,37.3574219 L32.1245117,37.3574219 L32.1245117,35.7226562 L26.3676758,35.7226562 L26.3676758,32.0136719 L32.449707,32.0136719 L32.449707,30.3173828 L24.3989258,30.3173828 L24.3989258,43 L32.449707,43 Z M37.0639648,43 L37.0639648,29.7109375 L35.1567383,29.7109375 L35.1567383,43 L37.0639648,43 Z M40.887207,31.75 C41.5375977,31.75 42.0825195,31.2138672 42.0825195,30.5634766 C42.0825195,29.9042969 41.5375977,29.3681641 40.887207,29.3681641 C40.2280273,29.3681641 39.6918945,29.9042969 39.6918945,30.5634766 C39.6918945,31.2138672 40.2280273,31.75 40.887207,31.75 Z M41.8276367,43 L41.8276367,33.4550781 L39.9291992,33.4550781 L39.9291992,43 L41.8276367,43 Z M45.940918,43 L48.0327148,39.5546875 L48.1733398,39.5546875 L50.2651367,43 L52.4360352,43 L49.2456055,38.1660156 L52.4008789,33.4550781 L50.2915039,33.4550781 L48.2524414,36.8652344 L48.1030273,36.8652344 L46.0463867,33.4550781 L43.840332,33.4550781 L47.0395508,38.2451172 L43.8666992,43 L45.940918,43 Z M55.3979492,31.75 C56.0483398,31.75 56.5932617,31.2138672 56.5932617,30.5634766 C56.5932617,29.9042969 56.0483398,29.3681641 55.3979492,29.3681641 C54.7387695,29.3681641 54.2026367,29.9042969 54.2026367,30.5634766 C54.2026367,31.2138672 54.7387695,31.75 55.3979492,31.75 Z M56.3383789,43 L56.3383789,33.4550781 L54.4399414,33.4550781 L54.4399414,43 L56.3383789,43 Z M61.0229492,43 L61.0229492,37.2958984 C61.0229492,35.9160156 62.0161133,35.0195312 63.4750977,35.0195312 C63.8354492,35.0195312 64.1606445,35.0634766 64.503418,35.1337891 L64.503418,33.3759766 C64.3100586,33.3320312 63.9760742,33.2880859 63.668457,33.2880859 C62.394043,33.2880859 61.5063477,33.8857422 61.1635742,34.8964844 L61.0229492,34.8964844 L61.0229492,33.4550781 L59.1157227,33.4550781 L59.1157227,43 L61.0229492,43 Z M66.190918,46.1816406 L70.0668945,29.7109375 L68.2739258,29.7109375 L64.3979492,46.1816406 L66.190918,46.1816406 Z M79.7524414,43 L79.7524414,41.3037109 L73.6704102,41.3037109 L73.6704102,37.3574219 L79.4272461,37.3574219 L79.4272461,35.7226562 L73.6704102,35.7226562 L73.6704102,32.0136719 L79.7524414,32.0136719 L79.7524414,30.3173828 L71.7016602,30.3173828 L71.7016602,43 L79.7524414,43 Z M84.2788086,43 L84.2788086,37.2958984 C84.2788086,35.9160156 85.2719727,35.0195312 86.730957,35.0195312 C87.0913086,35.0195312 87.4165039,35.0634766 87.7592773,35.1337891 L87.7592773,33.3759766 C87.565918,33.3320312 87.2319336,33.2880859 86.9243164,33.2880859 C85.6499023,33.2880859 84.762207,33.8857422 84.4194336,34.8964844 L84.2788086,34.8964844 L84.2788086,33.4550781 L82.371582,33.4550781 L82.371582,43 L84.2788086,43 Z M91.5737305,43 L91.5737305,29.7109375 L89.6665039,29.7109375 L89.6665039,43 L91.5737305,43 Z M97.0229492,43.1582031 C98.2885742,43.1582031 99.2905273,42.6132812 99.8530273,41.6464844 L100.002441,41.6464844 L100.002441,43 L101.89209,43 L101.89209,36.4697266 C101.89209,34.4658203 100.538574,33.2705078 98.1391602,33.2705078 C95.9682617,33.2705078 94.465332,34.3164062 94.2368164,35.8808594 L94.2280273,35.9423828 L96.0649414,35.9423828 L96.0737305,35.9072266 C96.3022461,35.2304688 96.996582,34.84375 98.0512695,34.84375 C99.3432617,34.84375 100.002441,35.4238281 100.002441,36.4697266 L100.002441,37.3134766 L97.418457,37.4628906 C95.1420898,37.6035156 93.8588867,38.5966797 93.8588867,40.3017578 L93.8588867,40.3193359 C93.8588867,42.0507812 95.2036133,43.1582031 97.0229492,43.1582031 Z M97.5327148,41.6376953 C96.5043945,41.6376953 95.7573242,41.1191406 95.7573242,40.2402344 L95.7573242,40.2226562 C95.7573242,39.3613281 96.3549805,38.8867188 97.6733398,38.8076172 L100.002441,38.6582031 L100.002441,39.4755859 C100.002441,40.7060547 98.956543,41.6376953 97.5327148,41.6376953 Z M106.48877,43 L106.48877,37.4013672 C106.48877,35.8632812 107.358887,34.9052734 108.756348,34.9052734 C110.153809,34.9052734 110.812988,35.6875 110.812988,37.2695312 L110.812988,43 L112.711426,43 L112.711426,36.8212891 C112.711426,34.5449219 111.533691,33.2705078 109.397949,33.2705078 C108.009277,33.2705078 107.095215,33.8857422 106.629395,34.9052734 L106.48877,34.9052734 L106.48877,33.4550781 L104.581543,33.4550781 L104.581543,43 L106.48877,43 Z M119.399902,46.3662109 C122.106934,46.3662109 123.820801,44.9775391 123.820801,42.8066406 L123.820801,33.4550781 L121.922363,33.4550781 L121.922363,35.0195312 L121.808105,35.0195312 C121.254395,33.9472656 120.217285,33.2880859 118.881348,33.2880859 C116.402832,33.2880859 114.882324,35.2128906 114.882324,37.9375 L114.882324,37.9550781 C114.882324,40.6445312 116.394043,42.5341797 118.846191,42.5341797 C120.155762,42.5341797 121.210449,41.9541016 121.790527,40.9169922 L121.931152,40.9169922 L121.931152,42.7978516 C121.931152,44.0986328 120.999512,44.8369141 119.42627,44.8369141 C118.134277,44.8369141 117.36084,44.3710938 117.202637,43.7119141 L117.193848,43.6943359 L115.269043,43.6943359 L115.251465,43.7119141 C115.47998,45.3027344 116.974121,46.3662109 119.399902,46.3662109 Z M119.373535,40.9609375 C117.747559,40.9609375 116.833496,39.7216797 116.833496,37.9462891 L116.833496,37.9287109 C116.833496,36.1533203 117.747559,34.9052734 119.373535,34.9052734 C120.981934,34.9052734 121.966309,36.1533203 121.966309,37.9287109 L121.966309,37.9462891 C121.966309,39.7304688 120.990723,40.9609375 119.373535,40.9609375 Z M35.112793,64.3076172 C38.4350586,64.3076172 40.5883789,62.2246094 40.5883789,59.0078125 L40.5883789,57.4345703 L35.3852539,57.4345703 L35.3852539,59.0253906 L38.6459961,59.0253906 L38.6459961,59.3066406 C38.628418,61.2578125 37.2133789,62.5673828 35.1391602,62.5673828 C32.7573242,62.5673828 31.2631836,60.6865234 31.2631836,57.6542969 L31.2631836,57.6367188 C31.2631836,54.6484375 32.7485352,52.75 35.0952148,52.75 C36.8354492,52.75 38.0483398,53.59375 38.5053711,55.0966797 L38.5317383,55.1845703 L40.5004883,55.1845703 L40.4829102,55.0966797 C40.0258789,52.6445312 37.9780273,51.0097656 35.0952148,51.0097656 C31.5444336,51.0097656 29.2504883,53.6201172 29.2504883,57.6455078 L29.2504883,57.6630859 C29.2504883,61.7412109 31.5180664,64.3076172 35.112793,64.3076172 Z M47.0834961,64.1845703 C49.5268555,64.1845703 50.8452148,62.7783203 51.1616211,61.5214844 L51.1791992,61.4423828 L49.3422852,61.4511719 L49.3071289,61.5214844 C49.0786133,62.0136719 48.3491211,62.6201172 47.1274414,62.6201172 C45.5541992,62.6201172 44.5522461,61.5566406 44.5170898,59.7285156 L51.284668,59.7285156 L51.284668,59.0605469 C51.284668,56.1953125 49.6499023,54.2705078 46.9868164,54.2705078 C44.3237305,54.2705078 42.6010742,56.265625 42.6010742,59.2451172 L42.6010742,59.2539062 C42.6010742,62.2773438 44.2885742,64.1845703 47.0834961,64.1845703 Z M49.3950195,58.3662109 L44.543457,58.3662109 C44.7104492,56.7226562 45.6948242,55.8349609 46.9956055,55.8349609 C48.2875977,55.8349609 49.2456055,56.6611328 49.3950195,58.3662109 Z M55.4594727,64 L55.4594727,58.4013672 C55.4594727,56.8632812 56.3295898,55.9052734 57.7270508,55.9052734 C59.1245117,55.9052734 59.7836914,56.6875 59.7836914,58.2695312 L59.7836914,64 L61.6821289,64 L61.6821289,57.8212891 C61.6821289,55.5449219 60.5043945,54.2705078 58.3686523,54.2705078 C56.9799805,54.2705078 56.065918,54.8857422 55.6000977,55.9052734 L55.4594727,55.9052734 L55.4594727,54.4550781 L53.5522461,54.4550781 L53.5522461,64 L55.4594727,64 Z M68.8452148,64.3076172 C71.7983398,64.3076172 73.6879883,62.7958984 73.6879883,60.3701172 L73.6879883,60.3613281 C73.6879883,58.4804688 72.5981445,57.4082031 69.9350586,56.8369141 L68.5551758,56.5292969 C66.9116211,56.1777344 66.2436523,55.5625 66.2436523,54.6220703 L66.2436523,54.6132812 C66.2436523,53.4179688 67.3422852,52.7236328 68.8276367,52.7236328 C70.3657227,52.7148438 71.3588867,53.4707031 71.5258789,54.5078125 L71.543457,54.6220703 L73.4506836,54.6220703 L73.4418945,54.4990234 C73.3012695,52.5302734 71.543457,51.0097656 68.8540039,51.0097656 C66.1645508,51.0097656 64.2661133,52.5214844 64.2573242,54.7099609 L64.2573242,54.71875 C64.2573242,56.5908203 65.3647461,57.7861328 67.9399414,58.3310547 L69.3286133,58.6298828 C71.0073242,58.9902344 71.6928711,59.6230469 71.6928711,60.5986328 L71.6928711,60.6074219 C71.6928711,61.7851562 70.5415039,62.59375 68.9243164,62.59375 C67.2280273,62.59375 66.0063477,61.8554688 65.9008789,60.7041016 L65.8920898,60.6074219 L63.9584961,60.6074219 L63.9672852,60.7216797 C64.1430664,62.8574219 65.9799805,64.3076172 68.8452148,64.3076172 Z M80.0600586,64.1845703 C82.503418,64.1845703 83.8217773,62.7783203 84.1381836,61.5214844 L84.1557617,61.4423828 L82.3188477,61.4511719 L82.2836914,61.5214844 C82.0551758,62.0136719 81.3256836,62.6201172 80.1040039,62.6201172 C78.5307617,62.6201172 77.5288086,61.5566406 77.4936523,59.7285156 L84.2612305,59.7285156 L84.2612305,59.0605469 C84.2612305,56.1953125 82.6264648,54.2705078 79.9633789,54.2705078 C77.300293,54.2705078 75.5776367,56.265625 75.5776367,59.2451172 L75.5776367,59.2539062 C75.5776367,62.2773438 77.2651367,64.1845703 80.0600586,64.1845703 Z M82.371582,58.3662109 L77.5200195,58.3662109 C77.6870117,56.7226562 78.6713867,55.8349609 79.972168,55.8349609 C81.2641602,55.8349609 82.222168,56.6611328 82.371582,58.3662109 Z M88.4360352,64 L88.4360352,58.2958984 C88.4360352,56.9160156 89.4291992,56.0195312 90.8881836,56.0195312 C91.2485352,56.0195312 91.5737305,56.0634766 91.9165039,56.1337891 L91.9165039,54.3759766 C91.7231445,54.3320312 91.3891602,54.2880859 91.081543,54.2880859 C89.8071289,54.2880859 88.9194336,54.8857422 88.5766602,55.8964844 L88.4360352,55.8964844 L88.4360352,54.4550781 L86.5288086,54.4550781 L86.5288086,64 L88.4360352,64 Z M98.5170898,64 L101.962402,54.4550781 L99.9584961,54.4550781 L97.5854492,62.0664062 L97.4360352,62.0664062 L95.0541992,54.4550781 L93.0327148,54.4550781 L96.4868164,64 L98.5170898,64 Z M107.51709,64.1845703 C109.960449,64.1845703 111.278809,62.7783203 111.595215,61.5214844 L111.612793,61.4423828 L109.775879,61.4511719 L109.740723,61.5214844 C109.512207,62.0136719 108.782715,62.6201172 107.561035,62.6201172 C105.987793,62.6201172 104.98584,61.5566406 104.950684,59.7285156 L111.718262,59.7285156 L111.718262,59.0605469 C111.718262,56.1953125 110.083496,54.2705078 107.42041,54.2705078 C104.757324,54.2705078 103.034668,56.265625 103.034668,59.2451172 L103.034668,59.2539062 C103.034668,62.2773438 104.722168,64.1845703 107.51709,64.1845703 Z M109.828613,58.3662109 L104.977051,58.3662109 C105.144043,56.7226562 106.128418,55.8349609 107.429199,55.8349609 C108.721191,55.8349609 109.679199,56.6611328 109.828613,58.3662109 Z M115.893066,64 L115.893066,58.2958984 C115.893066,56.9160156 116.88623,56.0195312 118.345215,56.0195312 C118.705566,56.0195312 119.030762,56.0634766 119.373535,56.1337891 L119.373535,54.3759766 C119.180176,54.3320312 118.846191,54.2880859 118.538574,54.2880859 C117.26416,54.2880859 116.376465,54.8857422 116.033691,55.8964844 L115.893066,55.8964844 L115.893066,54.4550781 L113.98584,54.4550781 L113.98584,64 L115.893066,64 Z" id="Elixir/ErlangGenServer" fill="#000000" fill-rule="nonzero"></path>
            </g>
            <g id="Group">
                <rect id="Rectangle" stroke="#979797" fill-opacity="0.3" fill="#AE8034" x="0.5" y="0.5" width="148" height="92" rx="8"></rect>
                <path d="M31.9291992,53 L34.6450195,43.5166016 L34.7680664,43.5166016 L37.4926758,53 L39.347168,53 L42.7749023,40.3173828 L40.7270508,40.3173828 L38.4067383,50.1787109 L38.2836914,50.1787109 L35.6206055,40.3173828 L33.7924805,40.3173828 L31.1469727,50.1787109 L31.0239258,50.1787109 L28.6948242,40.3173828 L26.6469727,40.3173828 L30.065918,53 L31.9291992,53 Z M47.9956055,53.1845703 C50.4389648,53.1845703 51.7573242,51.7783203 52.0737305,50.5214844 L52.0913086,50.4423828 L50.2543945,50.4511719 L50.2192383,50.5214844 C49.9907227,51.0136719 49.2612305,51.6201172 48.0395508,51.6201172 C46.4663086,51.6201172 45.4643555,50.5566406 45.4291992,48.7285156 L52.1967773,48.7285156 L52.1967773,48.0605469 C52.1967773,45.1953125 50.5620117,43.2705078 47.8989258,43.2705078 C45.2358398,43.2705078 43.5131836,45.265625 43.5131836,48.2451172 L43.5131836,48.2539062 C43.5131836,51.2773438 45.2006836,53.1845703 47.9956055,53.1845703 Z M50.3071289,47.3662109 L45.4555664,47.3662109 C45.6225586,45.7226562 46.6069336,44.8349609 47.9077148,44.8349609 C49.199707,44.8349609 50.1577148,45.6611328 50.3071289,47.3662109 Z M59.5356445,53.1582031 C61.9438477,53.1582031 63.4907227,51.2333984 63.4907227,48.2363281 L63.4907227,48.21875 C63.4907227,45.1953125 61.9614258,43.2880859 59.5356445,43.2880859 C58.2260742,43.2880859 57.1098633,43.9384766 56.6000977,44.9667969 L56.4594727,44.9667969 L56.4594727,39.7109375 L54.5522461,39.7109375 L54.5522461,53 L56.4594727,53 L56.4594727,51.4970703 L56.6000977,51.4970703 C57.1538086,52.5429688 58.199707,53.1582031 59.5356445,53.1582031 Z M58.9995117,51.5322266 C57.4086914,51.5322266 56.4243164,50.2753906 56.4243164,48.2363281 L56.4243164,48.21875 C56.4243164,46.1796875 57.4086914,44.9228516 58.9995117,44.9228516 C60.590332,44.9228516 61.5483398,46.1708984 61.5483398,48.21875 L61.5483398,48.2363281 C61.5483398,50.2841797 60.590332,51.5322266 58.9995117,51.5322266 Z M70.2231445,53.3076172 C73.1762695,53.3076172 75.065918,51.7958984 75.065918,49.3701172 L75.065918,49.3613281 C75.065918,47.4804688 73.9760742,46.4082031 71.3129883,45.8369141 L69.9331055,45.5292969 C68.2895508,45.1777344 67.621582,44.5625 67.621582,43.6220703 L67.621582,43.6132812 C67.621582,42.4179688 68.7202148,41.7236328 70.2055664,41.7236328 C71.7436523,41.7148438 72.7368164,42.4707031 72.9038086,43.5078125 L72.9213867,43.6220703 L74.8286133,43.6220703 L74.8198242,43.4990234 C74.6791992,41.5302734 72.9213867,40.0097656 70.2319336,40.0097656 C67.5424805,40.0097656 65.644043,41.5214844 65.6352539,43.7099609 L65.6352539,43.71875 C65.6352539,45.5908203 66.7426758,46.7861328 69.3178711,47.3310547 L70.706543,47.6298828 C72.3852539,47.9902344 73.0708008,48.6230469 73.0708008,49.5986328 L73.0708008,49.6074219 C73.0708008,50.7851562 71.9194336,51.59375 70.3022461,51.59375 C68.605957,51.59375 67.3842773,50.8554688 67.2788086,49.7041016 L67.2700195,49.6074219 L65.3364258,49.6074219 L65.3452148,49.7216797 C65.5209961,51.8574219 67.3579102,53.3076172 70.2231445,53.3076172 Z M81.4731445,53.1845703 C84.2680664,53.1845703 85.9819336,51.3125 85.9819336,48.2363281 L85.9819336,48.21875 C85.9819336,45.1425781 84.2592773,43.2705078 81.4731445,43.2705078 C78.6782227,43.2705078 76.9555664,45.1513672 76.9555664,48.21875 L76.9555664,48.2363281 C76.9555664,51.3125 78.6694336,53.1845703 81.4731445,53.1845703 Z M81.4731445,51.59375 C79.8295898,51.59375 78.9067383,50.3544922 78.9067383,48.2363281 L78.9067383,48.21875 C78.9067383,46.1005859 79.8295898,44.8613281 81.4731445,44.8613281 C83.1079102,44.8613281 84.0395508,46.1005859 84.0395508,48.21875 L84.0395508,48.2363281 C84.0395508,50.3457031 83.1079102,51.59375 81.4731445,51.59375 Z M92.2661133,53.1845703 C94.6303711,53.1845703 95.9926758,51.9101562 96.3354492,50.0556641 L96.3530273,49.9765625 L94.5249023,49.9765625 L94.5073242,50.0205078 C94.199707,51.0488281 93.4614258,51.59375 92.2661133,51.59375 C90.6928711,51.59375 89.7172852,50.3105469 89.7172852,48.2011719 L89.7172852,48.1835938 C89.7172852,46.1269531 90.675293,44.8613281 92.2661133,44.8613281 C93.5317383,44.8613281 94.3051758,45.5644531 94.5161133,46.5048828 L94.5249023,46.53125 L96.3530273,46.5224609 L96.3530273,46.4785156 C96.0893555,44.6240234 94.6567383,43.2705078 92.2573242,43.2705078 C89.4711914,43.2705078 87.7749023,45.1601562 87.7749023,48.1835938 L87.7749023,48.2011719 C87.7749023,51.2861328 89.4799805,53.1845703 92.2661133,53.1845703 Z M100.501465,53 L100.501465,49.5283203 L101.318848,48.7109375 L104.605957,53 L106.92627,53 L102.681152,47.4804688 L106.662598,43.4550781 L104.430176,43.4550781 L100.64209,47.4804688 L100.501465,47.4804688 L100.501465,39.7109375 L98.5942383,39.7109375 L98.5942383,53 L100.501465,53 Z M112.182129,53.1845703 C114.625488,53.1845703 115.943848,51.7783203 116.260254,50.5214844 L116.277832,50.4423828 L114.440918,50.4511719 L114.405762,50.5214844 C114.177246,51.0136719 113.447754,51.6201172 112.226074,51.6201172 C110.652832,51.6201172 109.650879,50.5566406 109.615723,48.7285156 L116.383301,48.7285156 L116.383301,48.0605469 C116.383301,45.1953125 114.748535,43.2705078 112.085449,43.2705078 C109.422363,43.2705078 107.699707,45.265625 107.699707,48.2451172 L107.699707,48.2539062 C107.699707,51.2773438 109.387207,53.1845703 112.182129,53.1845703 Z M114.493652,47.3662109 L109.64209,47.3662109 C109.809082,45.7226562 110.793457,44.8349609 112.094238,44.8349609 C113.38623,44.8349609 114.344238,45.6611328 114.493652,47.3662109 Z M122.254395,53.0615234 C122.623535,53.0615234 122.975098,53.0175781 123.282715,52.9648438 L123.282715,51.4443359 C123.019043,51.4707031 122.852051,51.4794922 122.562012,51.4794922 C121.621582,51.4794922 121.234863,51.0576172 121.234863,50.0292969 L121.234863,44.9580078 L123.282715,44.9580078 L123.282715,43.4550781 L121.234863,43.4550781 L121.234863,41.046875 L119.29248,41.046875 L119.29248,43.4550781 L117.79834,43.4550781 L117.79834,44.9580078 L119.29248,44.9580078 L119.29248,50.4863281 C119.29248,52.3232422 120.153809,53.0615234 122.254395,53.0615234 Z" id="WebSocket" fill="#000000" fill-rule="nonzero"></path>
            </g>
            <g id="Group-3" transform="translate(181.500000, 48.000000) scale(1, -1) rotate(90.000000) translate(-181.500000, -48.000000) translate(175.000000, 26.000000)" stroke="#060606" stroke-linecap="round" stroke-width="2">
                <g id="Group-2">
                    <line x1="4.5" y1="0.5" x2="4.5" y2="43.5" id="Line"></line>
                    <line x1="0.5" y1="37.5" x2="4.5" y2="43.5" id="Line"></line>
                </g>
                <g id="Group-2" transform="translate(10.500000, 22.000000) scale(-1, -1) translate(-10.500000, -22.000000) translate(8.000000, 0.000000)">
                    <line x1="4.5" y1="0.5" x2="4.5" y2="43.5" id="Line"></line>
                    <line x1="0.5" y1="37.5" x2="4.5" y2="43.5" id="Line"></line>
                </g>
            </g>
            <g id="Group-3" transform="translate(395.500000, 47.000000) scale(1, -1) rotate(90.000000) translate(-395.500000, -47.000000) translate(389.000000, 25.000000)" stroke="#060606" stroke-linecap="round" stroke-width="2">
                <g id="Group-2">
                    <line x1="4.5" y1="0.5" x2="4.5" y2="43.5" id="Line"></line>
                    <line x1="0.5" y1="37.5" x2="4.5" y2="43.5" id="Line"></line>
                </g>
                <g id="Group-2" transform="translate(10.500000, 22.000000) scale(-1, -1) translate(-10.500000, -22.000000) translate(8.000000, 0.000000)">
                    <line x1="4.5" y1="0.5" x2="4.5" y2="43.5" id="Line"></line>
                    <line x1="0.5" y1="37.5" x2="4.5" y2="43.5" id="Line"></line>
                </g>
            </g>
            <g id="Group-3" transform="translate(609.500000, 46.000000) scale(1, -1) rotate(90.000000) translate(-609.500000, -46.000000) translate(603.000000, 24.000000)" stroke="#060606" stroke-linecap="round" stroke-width="2">
                <g id="Group-2">
                    <line x1="4.5" y1="0.5" x2="4.5" y2="43.5" id="Line"></line>
                    <line x1="0.5" y1="37.5" x2="4.5" y2="43.5" id="Line"></line>
                </g>
                <g id="Group-2" transform="translate(10.500000, 22.000000) scale(-1, -1) translate(-10.500000, -22.000000) translate(8.000000, 0.000000)">
                    <line x1="4.5" y1="0.5" x2="4.5" y2="43.5" id="Line"></line>
                    <line x1="0.5" y1="37.5" x2="4.5" y2="43.5" id="Line"></line>
                </g>
            </g>
        </g>
    </g>
</svg>